<?xml version="1.0" encoding="UTF-8"?>
<svg width="210px" height="210px" viewBox="0 0 210 210" version="1.1" xmlns="http://www.w3.org/2000/svg" xmlns:xlink="http://www.w3.org/1999/xlink">
    <title>pixelswords</title>
    <g id="Page-1" stroke="none" stroke-width="1" fill="none" fill-rule="evenodd">
        <g id="pixelswords(1)">
            <polygon id="Path" fill="#959595" points="0 0 0 30 10 30 10 50 20 50 20 60 30 60 30 80 40 80 40 90 50 90 50 100 60 100 60 110 70 110 70 100 80 100 80 90 90 90 90 80 100 80 100 60 90 60 90 50 80 50 80 40 70 40 70 30 60 30 60 20 50 20 50 10 30 10 30 0"></polygon>
            <polygon id="Path" fill="#ABABAB" points="180 0 180 10 160 10 160 20 150 20 150 30 140 30 140 40 130 40 130 50 120 50 120 60 110 60 110 70 100 70 100 80 90 80 90 90 80 90 80 100 70 100 70 110 60 110 60 120 70 120 70 130 80 130 80 140 90 140 90 150 110 150 110 140 120 140 120 130 130 130 130 120 140 120 140 110 150 110 150 100 160 100 160 90 170 90 170 80 180 80 180 60 190 60 190 50 200 50 200 30 210 30 210 0"></polygon>
            <polygon id="Path" fill="#FFAB01" points="30 100 30 130 40 130 40 140 50 140 50 150 60 150 60 160 70 160 70 170 80 170 80 180 100 180 100 190 110 190 110 180 130 180 130 170 140 170 140 160 150 160 150 150 160 150 160 140 170 140 170 130 180 130 180 100 170 100 170 110 150 110 150 120 140 120 140 130 130 130 130 140 120 140 120 150 110 150 110 160 100 160 100 150 90 150 90 140 80 140 80 130 70 130 70 120 60 120 60 110 40 110 40 100"></polygon>
            <path d="M140,110 L140,120 L150,120 L150,110 L140,110 Z M130,120 L130,130 L140,130 L140,120 L130,120 Z M120,130 L120,140 L130,140 L130,130 L120,130 Z" id="Shape" fill="#959595" fill-rule="nonzero"></path>
            <polygon id="Path" fill="#AB5501" points="40 140 40 150 30 150 30 160 20 160 20 170 10 170 10 180 0 180 0 200 10 200 10 210 40 210 40 200 50 200 50 190 60 190 60 180 70 180 70 160 60 160 60 150 50 150 50 140"></polygon>
            <polygon id="Path" fill="#959595" points="110 140 110 150 120 150 120 140"></polygon>
            <polygon id="Path" fill="#AB5501" points="160 140 160 150 150 150 150 160 140 160 140 180 150 180 150 190 160 190 160 200 170 200 170 210 200 210 200 200 210 200 210 180 200 180 200 170 190 170 190 160 180 160 180 150 170 150 170 140"></polygon>
        </g>
    </g>
</svg>